    <svg>
        <g>
            <polygon fill="#009688" points="83.8,71.4 87.1,68.2 95.1,81.1 90.3,87.5" data-part-id="logo__item--shape_1__0"></polygon>
            <path fill-rule="evenodd" clip-rule="evenodd" fill="#009688" d="M45.1,24.1c0,0,37,11.4,42.3,44.3c5.8-6.4,7.5-17.4,3.3-28   c-0.4-1.1-0.9-2.1-1.4-3.1c-5.9-11.6-18.8-19-30.9-22.3c-11.8-3.2-21.2-3.3-32.7,1.1c-7.4,2.9-14,7-19.6,12.1   c11.1-3.2,22.6,1.4,32,9.6c9.2,7.9,15,15.3,21.2,24.3c6.4,9.2,13.3,14.1,21.9,10.7c0.8-0.3,1.6-0.7,2.4-1.2   C82,66.2,73.6,41.4,45.1,24.1z" data-part-id="logo__item--shape_1__1"></path>
        </g>
    </svg>